<svg xmlns="http://www.w3.org/2000/svg" xmlns:xlink="http://www.w3.org/1999/xlink" width="384" zoomAndPan="magnify" viewBox="0 0 288 291.749983" height="389" preserveAspectRatio="xMidYMid meet" version="1.0"><defs><g/><clipPath id="b77b65486f"><path d="M 28 37 L 251 37 L 251 247 L 28 247 Z M 28 37 " clip-rule="nonzero"/></clipPath><clipPath id="4cbe8d10fc"><path d="M 0.121094 192.164062 L 102.953125 -0.128906 L 287.980469 98.816406 L 185.144531 291.109375 Z M 0.121094 192.164062 " clip-rule="nonzero"/></clipPath><clipPath id="9ff518f034"><path d="M 0.121094 192.164062 L 102.953125 -0.128906 L 287.980469 98.816406 L 185.144531 291.109375 Z M 0.121094 192.164062 " clip-rule="nonzero"/></clipPath><clipPath id="12aa35a001"><rect x="0" width="54" y="0" height="80"/></clipPath></defs><g clip-path="url(#b77b65486f)"><g clip-path="url(#4cbe8d10fc)"><g clip-path="url(#9ff518f034)"><path fill="#000000" d="M 115.6875 42.078125 C 90.175781 49.808594 67.605469 67.28125 54.039062 92.644531 C 40.476562 118.011719 38.472656 146.480469 46.210938 171.996094 C 50.316406 185.53125 57.15625 198.230469 66.464844 209.203125 C 49.929688 185.742188 64.300781 181.992188 64.300781 181.992188 C 56.449219 191.699219 63.109375 204.136719 66.542969 209.292969 C 71.015625 214.550781 76.050781 219.40625 81.625 223.761719 C 78.828125 220.710938 73.046875 213.121094 74.585938 203.921875 C 76.59375 191.898438 75.792969 201.101562 77.816406 210.804688 C 79.414062 218.441406 81.738281 222.976562 82.660156 224.566406 C 86.929688 227.820312 91.5 230.785156 96.371094 233.417969 C 91.976562 230.355469 84.246094 223.632812 87.148438 215.75 C 91.003906 205.273438 89.269531 225.976562 98.304688 234.433594 C 123.289062 247.28125 151.132812 249.054688 176.140625 241.472656 C 201.652344 233.738281 224.21875 216.273438 237.789062 190.902344 C 251.355469 165.53125 253.355469 137.066406 245.617188 111.550781 C 237.882812 86.039062 220.414062 63.46875 195.046875 49.902344 C 169.679688 36.339844 141.207031 34.34375 115.6875 42.078125 M 79.453125 222.742188 C 75.421875 222.011719 68.984375 228.941406 68.652344 223.28125 C 68.355469 218.234375 75.644531 220.613281 77.964844 221.496094 C 77.46875 221.074219 76.976562 220.648438 76.492188 220.21875 C 70.5 216.132812 58.511719 209.597656 47.359375 213.359375 C 47.359375 213.359375 51.09375 199.976562 71.269531 215.277344 C 66.566406 210.503906 62.378906 205.328125 58.730469 199.839844 C 55.398438 195.882812 49.683594 189.957031 45.605469 184.300781 C 44.851562 184.574219 42.257812 185.125 37.734375 182.140625 C 37.410156 182.394531 36.949219 182.421875 36.589844 182.175781 C 34.898438 181.007812 33.144531 178.878906 33.136719 178.871094 C 32.792969 178.46875 32.835938 177.867188 33.234375 177.519531 C 33.636719 177.175781 34.238281 177.214844 34.585938 177.617188 C 34.589844 177.621094 36.203125 179.574219 37.675781 180.597656 C 38.039062 180.84375 38.179688 181.296875 38.042969 181.699219 C 42.152344 184.414062 44.492188 184.089844 45.277344 183.84375 C 43.953125 181.964844 42.824219 180.125 42.03125 178.40625 C 42.027344 178.390625 40.011719 173.949219 38.261719 170.753906 C 37.5625 170.675781 34.515625 170.136719 31.230469 166.699219 C 31.019531 166.753906 30.792969 166.699219 30.628906 166.535156 C 29.640625 165.570312 28.714844 163.957031 28.710938 163.953125 C 28.523438 163.648438 28.625 163.25 28.925781 163.066406 C 29.230469 162.878906 29.628906 162.980469 29.808594 163.285156 C 29.816406 163.285156 30.660156 164.765625 31.523438 165.605469 C 31.730469 165.804688 31.773438 166.113281 31.65625 166.355469 C 34.390625 169.203125 36.910156 169.953125 37.945312 170.152344 C 36.3125 166.917969 35.347656 162.449219 35.347656 162.4375 L 35.613281 162.378906 L 35.878906 162.324219 C 35.882812 162.335938 36.921875 167.1875 38.667969 170.363281 C 39.800781 172.421875 41.058594 175.035156 41.816406 176.65625 C 41.605469 174.632812 41.304688 171.199219 41.398438 168.851562 C 41.238281 168.738281 41.125 168.5625 41.113281 168.351562 C 41.035156 167.148438 40.46875 165.542969 40.46875 165.535156 C 40.355469 165.199219 40.542969 164.835938 40.878906 164.722656 C 41.21875 164.613281 41.578125 164.800781 41.691406 165.136719 C 41.695312 165.140625 42.3125 166.890625 42.402344 168.273438 C 42.421875 168.578125 42.222656 168.847656 41.941406 168.929688 C 41.820312 172.214844 42.464844 177.597656 42.535156 178.195312 L 45.925781 183.804688 L 56.519531 196.386719 C 51.886719 188.777344 48.246094 180.628906 45.679688 172.160156 C 37.902344 146.511719 39.914062 117.898438 53.550781 92.394531 C 67.1875 66.894531 89.871094 49.332031 115.519531 41.558594 C 141.171875 33.785156 169.785156 35.792969 195.289062 49.429688 C 220.789062 63.066406 238.351562 85.753906 246.121094 111.402344 C 253.898438 137.054688 251.890625 165.667969 238.253906 191.167969 C 224.613281 216.667969 201.933594 234.226562 176.28125 242.003906 C 150.628906 249.777344 122.015625 247.769531 96.515625 234.132812 C 94.402344 233.003906 92.34375 231.808594 90.339844 230.554688 C 89.953125 230.402344 81.785156 227.160156 75.761719 229.21875 C 75.503906 229.636719 74.867188 230.0625 74.0625 230.300781 C 72.898438 230.65625 71.824219 230.5 71.65625 229.960938 C 71.492188 229.417969 72.300781 228.695312 73.464844 228.335938 C 74.582031 227.992188 75.625 228.125 75.851562 228.617188 C 80.199219 227.253906 85.496094 228.433594 88.40625 229.3125 C 85.285156 227.261719 82.296875 225.070312 79.453125 222.742188 Z M 35.101562 160.246094 L 35.621094 162.378906 C 35.621094 162.378906 37.730469 158.699219 36.171875 157.785156 C 34.617188 156.871094 34.609375 159.789062 35.25 160.832031 C 35.25 160.832031 34.277344 159.796875 33.460938 159.644531 C 32.640625 159.496094 31.945312 160.796875 32.820312 161.304688 C 33.691406 161.8125 35.625 162.375 35.625 162.375 " fill-opacity="1" fill-rule="evenodd"/></g></g></g><g fill="#000000" fill-opacity="1"><g transform="translate(83.329083, 89.888092)"><g><path d="M -3.25 -10.875 L -3.125 -11.1875 C -3.050781 -11.269531 -2.984375 -11.300781 -2.921875 -11.28125 C -1.953125 -10.71875 -1.390625 -10.367188 -1.234375 -10.234375 C -1.078125 -10.109375 -1.039062 -10 -1.125 -9.90625 C -1.175781 -9.832031 -1.304688 -9.832031 -1.515625 -9.90625 C -1.722656 -9.976562 -1.921875 -10.023438 -2.109375 -10.046875 C -2.296875 -10.078125 -2.421875 -10.085938 -2.484375 -10.078125 C -2.546875 -10.066406 -2.707031 -10.046875 -2.96875 -10.015625 C -3.632812 -9.910156 -4.171875 -9.613281 -4.578125 -9.125 C -4.984375 -8.632812 -5.203125 -8.15625 -5.234375 -7.6875 C -5.265625 -7.21875 -5.109375 -6.84375 -4.765625 -6.5625 C -4.429688 -6.28125 -4.09375 -6.140625 -3.75 -6.140625 C -3.40625 -6.148438 -3.054688 -6.25 -2.703125 -6.4375 C -2.347656 -6.632812 -1.988281 -6.847656 -1.625 -7.078125 C -0.65625 -7.703125 0.21875 -8.035156 1 -8.078125 C 1.519531 -8.117188 2.007812 -7.945312 2.46875 -7.5625 C 3.207031 -6.945312 3.59375 -6.222656 3.625 -5.390625 C 3.664062 -4.566406 3.394531 -3.804688 2.8125 -3.109375 C 2.40625 -2.628906 2.050781 -2.257812 1.75 -2 C 1.457031 -1.75 1.101562 -1.535156 0.6875 -1.359375 C 0.5625 -1.316406 0.195312 -1.4375 -0.40625 -1.71875 C -1.007812 -2 -1.367188 -2.191406 -1.484375 -2.296875 C -1.609375 -2.398438 -1.628906 -2.5 -1.546875 -2.59375 C -1.460938 -2.6875 -1.382812 -2.71875 -1.3125 -2.6875 C -0.46875 -2.425781 0.234375 -2.359375 0.796875 -2.484375 C 1.398438 -2.617188 1.925781 -2.957031 2.375 -3.5 C 2.820312 -4.039062 3.039062 -4.585938 3.03125 -5.140625 C 3.019531 -5.691406 2.789062 -6.15625 2.34375 -6.53125 C 2.007812 -6.800781 1.640625 -6.921875 1.234375 -6.890625 C 0.835938 -6.867188 0.472656 -6.753906 0.140625 -6.546875 C -1.085938 -5.785156 -1.96875 -5.316406 -2.5 -5.140625 C -3.40625 -4.816406 -4.175781 -4.921875 -4.8125 -5.453125 C -5.457031 -5.992188 -5.78125 -6.644531 -5.78125 -7.40625 C -5.78125 -8.164062 -5.472656 -8.910156 -4.859375 -9.640625 C -4.640625 -9.910156 -4.316406 -10.179688 -3.890625 -10.453125 C -3.460938 -10.734375 -3.25 -10.875 -3.25 -10.875 Z M -3.25 -10.875 "/></g></g></g><g fill="#000000" fill-opacity="1"><g transform="translate(93.01115, 79.235286)"><g><path d="M 2.78125 -2.03125 C 2.175781 -1.507812 1.492188 -1.25 0.734375 -1.25 C -0.015625 -1.257812 -0.691406 -1.625 -1.296875 -2.34375 C -1.910156 -3.0625 -2.222656 -3.828125 -2.234375 -4.640625 C -2.253906 -5.460938 -1.953125 -6.140625 -1.328125 -6.671875 C -1.035156 -6.921875 -0.722656 -7.097656 -0.390625 -7.203125 C -0.0664062 -7.304688 0.222656 -7.335938 0.484375 -7.296875 C 0.753906 -7.253906 1.003906 -7.191406 1.234375 -7.109375 C 1.628906 -6.960938 1.890625 -6.8125 2.015625 -6.65625 C 2.117188 -6.53125 2.03125 -6.34375 1.75 -6.09375 L -0.9375 -3.796875 C -0.988281 -3.753906 -1.015625 -3.722656 -1.015625 -3.703125 C -1.023438 -3.691406 -1.007812 -3.65625 -0.96875 -3.59375 C -0.40625 -2.9375 0.210938 -2.570312 0.890625 -2.5 C 1.566406 -2.425781 2.144531 -2.59375 2.625 -3 C 2.914062 -3.25 3.140625 -3.582031 3.296875 -4 C 3.460938 -4.414062 3.554688 -4.628906 3.578125 -4.640625 C 3.648438 -4.703125 3.710938 -4.695312 3.765625 -4.625 C 3.835938 -4.539062 3.859375 -4.363281 3.828125 -4.09375 C 3.796875 -3.820312 3.75 -3.578125 3.6875 -3.359375 C 3.539062 -2.859375 3.238281 -2.414062 2.78125 -2.03125 Z M -1.078125 -4.140625 L 0.71875 -5.78125 C 0.8125 -5.851562 0.863281 -5.90625 0.875 -5.9375 C 0.882812 -5.976562 0.867188 -6.019531 0.828125 -6.0625 C 0.648438 -6.28125 0.34375 -6.445312 -0.09375 -6.5625 C -0.53125 -6.675781 -0.921875 -6.582031 -1.265625 -6.28125 C -1.609375 -5.976562 -1.757812 -5.609375 -1.71875 -5.171875 C -1.675781 -4.742188 -1.550781 -4.40625 -1.34375 -4.15625 C -1.257812 -4.0625 -1.171875 -4.054688 -1.078125 -4.140625 Z M -1.078125 -4.140625 "/></g></g></g><g fill="#000000" fill-opacity="1"><g transform="translate(102.937659, 71.397348)"><g><path d="M 2.046875 -1.015625 C 1.128906 -0.453125 0.429688 -0.5625 -0.046875 -1.34375 C -0.390625 -1.90625 -0.394531 -2.4375 -0.0625 -2.9375 C 0.226562 -3.332031 0.738281 -3.84375 1.46875 -4.46875 C 1.476562 -4.488281 1.5 -4.515625 1.53125 -4.546875 C 1.570312 -4.578125 1.613281 -4.609375 1.65625 -4.640625 C 1.695312 -4.679688 1.722656 -4.707031 1.734375 -4.71875 C 1.785156 -4.78125 1.785156 -4.859375 1.734375 -4.953125 L 1.359375 -5.578125 C 1.085938 -6.015625 0.757812 -6.253906 0.375 -6.296875 C 0 -6.335938 -0.304688 -6.285156 -0.546875 -6.140625 C -1.109375 -5.796875 -1.242188 -5.390625 -0.953125 -4.921875 L -0.640625 -4.515625 C -0.546875 -4.367188 -0.570312 -4.25 -0.71875 -4.15625 C -0.820312 -4.09375 -0.953125 -4.035156 -1.109375 -3.984375 C -1.398438 -3.921875 -1.601562 -3.984375 -1.71875 -4.171875 C -1.90625 -4.472656 -1.878906 -4.890625 -1.640625 -5.421875 C -1.398438 -5.953125 -1.070312 -6.34375 -0.65625 -6.59375 C -0.25 -6.851562 0.09375 -7.015625 0.375 -7.078125 C 0.664062 -7.140625 0.894531 -7.15625 1.0625 -7.125 C 1.238281 -7.09375 1.40625 -7.019531 1.5625 -6.90625 C 1.769531 -6.757812 2 -6.476562 2.25 -6.0625 C 2.507812 -5.644531 2.726562 -5.265625 2.90625 -4.921875 C 3.082031 -4.585938 3.253906 -4.285156 3.421875 -4.015625 C 3.585938 -3.753906 3.75 -3.554688 3.90625 -3.421875 C 4.070312 -3.296875 4.210938 -3.234375 4.328125 -3.234375 C 4.453125 -3.242188 4.550781 -3.269531 4.625 -3.3125 C 4.851562 -3.425781 5.003906 -3.425781 5.078125 -3.3125 C 5.179688 -3.15625 4.988281 -2.925781 4.5 -2.625 C 4.289062 -2.5 4.078125 -2.445312 3.859375 -2.46875 C 3.648438 -2.488281 3.484375 -2.53125 3.359375 -2.59375 C 3.234375 -2.664062 3.164062 -2.695312 3.15625 -2.6875 C 3.144531 -2.6875 3.125 -2.644531 3.09375 -2.5625 C 3.070312 -2.476562 3.035156 -2.367188 2.984375 -2.234375 C 2.929688 -2.109375 2.867188 -1.96875 2.796875 -1.8125 C 2.597656 -1.46875 2.347656 -1.203125 2.046875 -1.015625 Z M 1.875 -4.5 L 1.78125 -4.40625 C 1.613281 -4.269531 1.507812 -4.179688 1.46875 -4.140625 C 1.425781 -4.109375 1.332031 -4.019531 1.1875 -3.875 C 1.039062 -3.726562 0.941406 -3.617188 0.890625 -3.546875 C 0.835938 -3.472656 0.769531 -3.367188 0.6875 -3.234375 C 0.613281 -3.097656 0.570312 -2.972656 0.5625 -2.859375 C 0.5625 -2.554688 0.632812 -2.28125 0.78125 -2.03125 C 0.9375 -1.789062 1.132812 -1.640625 1.375 -1.578125 C 1.625 -1.515625 1.875 -1.5625 2.125 -1.71875 C 2.375 -1.875 2.550781 -2.023438 2.65625 -2.171875 C 2.757812 -2.316406 2.820312 -2.453125 2.84375 -2.578125 C 2.875 -2.703125 2.863281 -2.84375 2.8125 -3 C 2.789062 -3.164062 2.703125 -3.367188 2.546875 -3.609375 L 2.03125 -4.453125 C 1.988281 -4.523438 1.9375 -4.539062 1.875 -4.5 Z M 1.875 -4.5 "/></g></g></g><g fill="#000000" fill-opacity="1"><g transform="translate(113.942243, 65.246503)"><g><path d="M -1.203125 -5.03125 L -1.4375 -4.921875 C -1.582031 -4.859375 -1.679688 -4.882812 -1.734375 -5 C -1.773438 -5.082031 -1.769531 -5.175781 -1.71875 -5.28125 C -1.488281 -5.625 -1.300781 -6.070312 -1.15625 -6.625 C -1.101562 -6.875 -1.054688 -7.0625 -1.015625 -7.1875 C -0.972656 -7.3125 -0.910156 -7.390625 -0.828125 -7.421875 C -0.742188 -7.460938 -0.660156 -7.382812 -0.578125 -7.1875 C -0.578125 -7.1875 -0.492188 -6.9375 -0.328125 -6.4375 C -0.285156 -6.320312 -0.234375 -6.257812 -0.171875 -6.25 C -0.109375 -6.25 0.046875 -6.304688 0.296875 -6.421875 L 0.734375 -6.609375 C 1.117188 -6.765625 1.347656 -6.882812 1.421875 -6.96875 C 1.546875 -7.101562 1.625 -7.175781 1.65625 -7.1875 C 1.738281 -7.226562 1.800781 -7.203125 1.84375 -7.109375 C 1.863281 -7.046875 1.863281 -6.890625 1.84375 -6.640625 C 1.820312 -6.398438 1.785156 -6.269531 1.734375 -6.25 C 1.347656 -6.082031 1.070312 -5.972656 0.90625 -5.921875 C 0.75 -5.878906 0.644531 -5.847656 0.59375 -5.828125 C 0.550781 -5.816406 0.507812 -5.800781 0.46875 -5.78125 C 0.425781 -5.757812 0.398438 -5.75 0.390625 -5.75 L 0.34375 -5.75 C 0.1875 -5.6875 0.09375 -5.617188 0.0625 -5.546875 C 0.0390625 -5.472656 0.0703125 -5.351562 0.15625 -5.1875 L 1.109375 -2.8125 C 1.347656 -2.269531 1.582031 -1.914062 1.8125 -1.75 C 2.039062 -1.59375 2.375 -1.609375 2.8125 -1.796875 C 2.988281 -1.867188 3.171875 -1.992188 3.359375 -2.171875 C 3.546875 -2.347656 3.644531 -2.441406 3.65625 -2.453125 C 3.738281 -2.484375 3.800781 -2.441406 3.84375 -2.328125 C 3.894531 -2.222656 3.8125 -2.015625 3.59375 -1.703125 C 3.382812 -1.398438 3.113281 -1.175781 2.78125 -1.03125 C 1.632812 -0.550781 0.847656 -0.800781 0.421875 -1.78125 L 0.34375 -1.96875 L -0.859375 -4.9375 C -0.890625 -5.019531 -0.925781 -5.066406 -0.96875 -5.078125 C -1.007812 -5.085938 -1.085938 -5.070312 -1.203125 -5.03125 Z M -1.203125 -5.03125 "/></g></g></g><g fill="#000000" fill-opacity="1"><g transform="translate(124.217936, 61.316012)"><g><path d="M -0.515625 -5.140625 L -0.75 -5.0625 C -0.90625 -5.019531 -1 -5.0625 -1.03125 -5.1875 C -1.0625 -5.28125 -1.039062 -5.363281 -0.96875 -5.4375 C -0.695312 -5.757812 -0.457031 -6.1875 -0.25 -6.71875 C -0.15625 -6.957031 -0.0820312 -7.132812 -0.03125 -7.25 C 0.0195312 -7.375 0.09375 -7.445312 0.1875 -7.46875 C 0.28125 -7.5 0.351562 -7.40625 0.40625 -7.1875 C 0.40625 -7.1875 0.457031 -6.929688 0.5625 -6.421875 C 0.59375 -6.304688 0.632812 -6.242188 0.6875 -6.234375 C 0.75 -6.222656 0.914062 -6.253906 1.1875 -6.328125 L 1.640625 -6.453125 C 2.035156 -6.554688 2.273438 -6.644531 2.359375 -6.71875 C 2.492188 -6.832031 2.578125 -6.894531 2.609375 -6.90625 C 2.703125 -6.925781 2.765625 -6.890625 2.796875 -6.796875 C 2.804688 -6.722656 2.78125 -6.566406 2.71875 -6.328125 C 2.664062 -6.085938 2.613281 -5.960938 2.5625 -5.953125 C 2.15625 -5.835938 1.867188 -5.765625 1.703125 -5.734375 C 1.535156 -5.710938 1.425781 -5.695312 1.375 -5.6875 C 1.332031 -5.675781 1.289062 -5.664062 1.25 -5.65625 C 1.207031 -5.65625 1.175781 -5.648438 1.15625 -5.640625 L 1.125 -5.65625 C 0.96875 -5.601562 0.867188 -5.546875 0.828125 -5.484375 C 0.796875 -5.421875 0.800781 -5.296875 0.84375 -5.109375 L 1.484375 -2.625 C 1.640625 -2.050781 1.820312 -1.671875 2.03125 -1.484375 C 2.238281 -1.304688 2.570312 -1.28125 3.03125 -1.40625 C 3.226562 -1.457031 3.425781 -1.554688 3.625 -1.703125 C 3.820312 -1.847656 3.925781 -1.921875 3.9375 -1.921875 C 4.03125 -1.941406 4.09375 -1.894531 4.125 -1.78125 C 4.15625 -1.664062 4.039062 -1.46875 3.78125 -1.1875 C 3.53125 -0.914062 3.226562 -0.734375 2.875 -0.640625 C 1.6875 -0.316406 0.953125 -0.675781 0.671875 -1.71875 L 0.625 -1.90625 L -0.1875 -5.015625 C -0.207031 -5.109375 -0.234375 -5.160156 -0.265625 -5.171875 C -0.304688 -5.179688 -0.390625 -5.171875 -0.515625 -5.140625 Z M -0.515625 -5.140625 "/></g></g></g><g fill="#000000" fill-opacity="1"><g transform="translate(134.949662, 58.828836)"><g><path d="M 0.875 -2.78125 L 0.140625 -8.578125 C 0.109375 -8.785156 0.046875 -8.96875 -0.046875 -9.125 C -0.140625 -9.289062 -0.226562 -9.382812 -0.3125 -9.40625 C -0.394531 -9.425781 -0.578125 -9.421875 -0.859375 -9.390625 C -0.953125 -9.367188 -1.003906 -9.390625 -1.015625 -9.453125 C -1.023438 -9.515625 -1.023438 -9.5625 -1.015625 -9.59375 C -1.003906 -9.625 -0.976562 -9.65625 -0.9375 -9.6875 C -0.894531 -9.71875 -0.84375 -9.75 -0.78125 -9.78125 C -0.53125 -9.863281 -0.273438 -9.992188 -0.015625 -10.171875 C 0.398438 -10.441406 0.675781 -10.585938 0.8125 -10.609375 C 0.925781 -10.617188 1 -10.539062 1.03125 -10.375 C 1.03125 -10.332031 1.03125 -10.222656 1.03125 -10.046875 C 1.0625 -9.503906 1.117188 -8.914062 1.203125 -8.28125 L 1.3125 -7.53125 L 1.53125 -5.703125 L 2.078125 -1.640625 C 2.109375 -1.453125 2.144531 -1.300781 2.1875 -1.1875 C 2.238281 -1.070312 2.359375 -0.96875 2.546875 -0.875 C 2.742188 -0.78125 3 -0.757812 3.3125 -0.8125 C 3.363281 -0.8125 3.410156 -0.789062 3.453125 -0.75 C 3.492188 -0.707031 3.519531 -0.664062 3.53125 -0.625 C 3.550781 -0.488281 3.421875 -0.40625 3.140625 -0.375 L 1.75 -0.28125 C 1.507812 -0.25 1.285156 -0.203125 1.078125 -0.140625 C 0.867188 -0.078125 0.726562 -0.0390625 0.65625 -0.03125 C 0.59375 -0.0195312 0.535156 -0.0234375 0.484375 -0.046875 C 0.441406 -0.078125 0.414062 -0.113281 0.40625 -0.15625 C 0.40625 -0.207031 0.421875 -0.253906 0.453125 -0.296875 C 0.492188 -0.335938 0.554688 -0.367188 0.640625 -0.390625 C 0.890625 -0.503906 1.035156 -0.632812 1.078125 -0.78125 C 1.117188 -0.9375 1.117188 -1.148438 1.078125 -1.421875 L 1.015625 -1.78125 Z M 0.875 -2.78125 "/></g></g></g><g fill="#000000" fill-opacity="1"><g transform="translate(145.021736, 57.802706)"><g><path d="M 3.4375 0.28125 C 2.632812 0.28125 1.945312 0.03125 1.375 -0.46875 C 0.8125 -0.96875 0.53125 -1.6875 0.53125 -2.625 C 0.539062 -3.570312 0.804688 -4.359375 1.328125 -4.984375 C 1.859375 -5.609375 2.535156 -5.921875 3.359375 -5.921875 C 3.742188 -5.921875 4.09375 -5.847656 4.40625 -5.703125 C 4.726562 -5.566406 4.972656 -5.398438 5.140625 -5.203125 C 5.316406 -5.003906 5.460938 -4.796875 5.578125 -4.578125 C 5.773438 -4.203125 5.875 -3.914062 5.875 -3.71875 C 5.875 -3.550781 5.6875 -3.46875 5.3125 -3.46875 L 1.78125 -3.484375 C 1.707031 -3.484375 1.660156 -3.476562 1.640625 -3.46875 C 1.628906 -3.46875 1.625 -3.429688 1.625 -3.359375 C 1.625 -2.492188 1.851562 -1.8125 2.3125 -1.3125 C 2.769531 -0.8125 3.3125 -0.5625 3.9375 -0.5625 C 4.320312 -0.5625 4.710938 -0.660156 5.109375 -0.859375 C 5.503906 -1.066406 5.710938 -1.171875 5.734375 -1.171875 C 5.828125 -1.171875 5.875 -1.128906 5.875 -1.046875 C 5.875 -0.929688 5.769531 -0.78125 5.5625 -0.59375 C 5.363281 -0.40625 5.171875 -0.253906 4.984375 -0.140625 C 4.546875 0.140625 4.03125 0.28125 3.4375 0.28125 Z M 1.890625 -3.828125 L 4.3125 -3.90625 C 4.4375 -3.90625 4.515625 -3.914062 4.546875 -3.9375 C 4.578125 -3.957031 4.59375 -4 4.59375 -4.0625 C 4.59375 -4.34375 4.46875 -4.664062 4.21875 -5.03125 C 3.96875 -5.394531 3.613281 -5.578125 3.15625 -5.578125 C 2.695312 -5.578125 2.335938 -5.394531 2.078125 -5.03125 C 1.828125 -4.675781 1.703125 -4.335938 1.703125 -4.015625 C 1.703125 -3.890625 1.765625 -3.828125 1.890625 -3.828125 Z M 1.890625 -3.828125 "/></g></g></g><g fill="#000000" fill-opacity="1"><g transform="translate(157.71, 58.41051)"><g/></g></g><g fill="#000000" fill-opacity="1"><g transform="translate(166.826506, 60.049781)"><g><path d="M 2.171875 0.578125 L 0.625 0.234375 C 0.375 0.171875 0.269531 0.0625 0.3125 -0.09375 C 0.351562 -0.226562 0.570312 -0.253906 0.96875 -0.171875 C 1.113281 -0.140625 1.265625 -0.140625 1.421875 -0.171875 C 1.585938 -0.210938 1.703125 -0.304688 1.765625 -0.453125 C 1.984375 -0.910156 2.148438 -1.359375 2.265625 -1.796875 L 2.5625 -2.84375 L 2.765625 -3.53125 C 2.910156 -4.082031 2.9375 -4.429688 2.84375 -4.578125 C 2.757812 -4.734375 2.488281 -4.890625 2.03125 -5.046875 C 1.875 -5.085938 1.816406 -5.171875 1.859375 -5.296875 C 1.878906 -5.398438 1.976562 -5.429688 2.15625 -5.390625 C 2.175781 -5.378906 2.300781 -5.328125 2.53125 -5.234375 C 2.769531 -5.140625 3.109375 -5.03125 3.546875 -4.90625 C 3.992188 -4.789062 4.347656 -4.707031 4.609375 -4.65625 C 4.867188 -4.613281 5.035156 -4.582031 5.109375 -4.5625 C 5.191406 -4.539062 5.253906 -4.5 5.296875 -4.4375 C 5.347656 -4.375 5.363281 -4.316406 5.34375 -4.265625 C 5.332031 -4.222656 5.304688 -4.191406 5.265625 -4.171875 C 5.222656 -4.148438 5.179688 -4.132812 5.140625 -4.125 C 5.109375 -4.125 5.054688 -4.132812 4.984375 -4.15625 C 4.921875 -4.175781 4.867188 -4.1875 4.828125 -4.1875 C 4.785156 -4.1875 4.710938 -4.191406 4.609375 -4.203125 C 4.503906 -4.222656 4.429688 -4.226562 4.390625 -4.21875 C 4.359375 -4.21875 4.300781 -4.207031 4.21875 -4.1875 C 4.144531 -4.164062 4.09375 -4.113281 4.0625 -4.03125 C 3.914062 -3.75 3.796875 -3.453125 3.703125 -3.140625 L 3.0625 -0.953125 L 2.984375 -0.65625 C 2.921875 -0.425781 2.890625 -0.234375 2.890625 -0.078125 C 2.898438 0.0859375 3.023438 0.238281 3.265625 0.375 C 3.515625 0.519531 3.753906 0.640625 3.984375 0.734375 C 4.210938 0.835938 4.3125 0.929688 4.28125 1.015625 C 4.257812 1.109375 4.21875 1.15625 4.15625 1.15625 C 4.09375 1.164062 3.992188 1.15625 3.859375 1.125 Z M 2.171875 0.578125 "/></g></g></g><g fill="#000000" fill-opacity="1"><g transform="translate(177.268962, 63.291695)"><g><path d="M 3.265625 1.671875 C 2.359375 1.265625 1.78125 0.671875 1.53125 -0.109375 C 1.28125 -0.890625 1.332031 -1.679688 1.6875 -2.484375 C 2.050781 -3.296875 2.617188 -3.816406 3.390625 -4.046875 C 4.171875 -4.285156 4.945312 -4.234375 5.71875 -3.890625 C 6.488281 -3.546875 7.046875 -3.007812 7.390625 -2.28125 C 7.734375 -1.5625 7.707031 -0.75 7.3125 0.15625 C 6.96875 0.90625 6.429688 1.445312 5.703125 1.78125 C 4.984375 2.113281 4.171875 2.078125 3.265625 1.671875 Z M 5.359375 -3.265625 C 4.785156 -3.523438 4.21875 -3.5625 3.65625 -3.375 C 3.09375 -3.1875 2.660156 -2.75 2.359375 -2.0625 C 2.054688 -1.382812 2.046875 -0.765625 2.328125 -0.203125 C 2.609375 0.359375 3.035156 0.765625 3.609375 1.015625 C 4.179688 1.273438 4.765625 1.289062 5.359375 1.0625 C 5.953125 0.84375 6.390625 0.414062 6.671875 -0.21875 C 6.960938 -0.851562 6.960938 -1.453125 6.671875 -2.015625 C 6.378906 -2.585938 5.941406 -3.003906 5.359375 -3.265625 Z M 5.359375 -3.265625 "/></g></g></g><g fill="#000000" fill-opacity="1"><g transform="translate(189.392774, 69.326602)"><g><path d="M 1.140625 0.390625 C 1.015625 0.0664062 0.976562 -0.140625 1.03125 -0.234375 C 1.09375 -0.328125 1.304688 -0.40625 1.671875 -0.46875 C 1.722656 -0.476562 1.800781 -0.503906 1.90625 -0.546875 C 2.019531 -0.585938 2.117188 -0.609375 2.203125 -0.609375 C 2.296875 -0.617188 2.375 -0.601562 2.4375 -0.5625 C 2.5 -0.53125 2.554688 -0.28125 2.609375 0.1875 C 2.617188 0.21875 2.640625 0.285156 2.671875 0.390625 C 2.722656 0.609375 2.734375 0.742188 2.703125 0.796875 C 2.671875 0.847656 2.625 0.878906 2.5625 0.890625 C 2.5 0.910156 2.410156 0.929688 2.296875 0.953125 C 2.296875 0.953125 2.207031 0.957031 2.03125 0.96875 C 1.976562 0.988281 1.898438 1.019531 1.796875 1.0625 C 1.578125 1.144531 1.425781 1.160156 1.34375 1.109375 C 1.269531 1.054688 1.21875 0.925781 1.1875 0.71875 C 1.164062 0.519531 1.148438 0.410156 1.140625 0.390625 Z M 1.140625 0.390625 "/></g></g></g><g fill="#000000" fill-opacity="1"><g transform="translate(197.464017, 74.791391)"><g><path d="M 2.65625 2.53125 C 1.90625 1.882812 1.519531 1.148438 1.5 0.328125 C 1.476562 -0.492188 1.753906 -1.238281 2.328125 -1.90625 C 2.910156 -2.582031 3.601562 -2.921875 4.40625 -2.921875 C 5.21875 -2.921875 5.941406 -2.644531 6.578125 -2.09375 C 7.222656 -1.550781 7.609375 -0.882812 7.734375 -0.09375 C 7.859375 0.695312 7.601562 1.46875 6.96875 2.21875 C 6.425781 2.84375 5.757812 3.210938 4.96875 3.328125 C 4.175781 3.441406 3.40625 3.175781 2.65625 2.53125 Z M 6.078125 -1.609375 C 5.597656 -2.023438 5.0625 -2.21875 4.46875 -2.1875 C 3.875 -2.164062 3.332031 -1.867188 2.84375 -1.296875 C 2.363281 -0.734375 2.175781 -0.144531 2.28125 0.46875 C 2.394531 1.082031 2.691406 1.59375 3.171875 2 C 3.648438 2.414062 4.203125 2.601562 4.828125 2.5625 C 5.460938 2.519531 6.003906 2.234375 6.453125 1.703125 C 6.910156 1.171875 7.082031 0.585938 6.96875 -0.046875 C 6.851562 -0.679688 6.554688 -1.203125 6.078125 -1.609375 Z M 6.078125 -1.609375 "/></g></g></g><g fill="#000000" fill-opacity="1"><g transform="translate(207.364462, 83.961889)"><g><path d="M 1.703125 2.046875 L 0.46875 0.59375 C 0.3125 0.414062 0.269531 0.296875 0.34375 0.234375 C 0.382812 0.203125 0.4375 0.191406 0.5 0.203125 C 0.5625 0.222656 0.664062 0.269531 0.8125 0.34375 C 0.957031 0.414062 1.109375 0.476562 1.265625 0.53125 C 2.398438 0.914062 3.347656 1.09375 4.109375 1.0625 C 4.878906 1.039062 5.429688 0.890625 5.765625 0.609375 C 6.097656 0.328125 6.257812 -0.00390625 6.25 -0.390625 C 6.238281 -0.785156 6.132812 -1.097656 5.9375 -1.328125 C 5.59375 -1.742188 5.253906 -1.8125 4.921875 -1.53125 C 4.847656 -1.46875 4.757812 -1.34375 4.65625 -1.15625 C 4.5625 -0.976562 4.492188 -0.875 4.453125 -0.84375 C 4.378906 -0.78125 4.285156 -0.816406 4.171875 -0.953125 C 4.054688 -1.085938 3.972656 -1.265625 3.921875 -1.484375 C 3.878906 -1.710938 3.898438 -1.863281 3.984375 -1.9375 C 4.066406 -2.019531 4.191406 -2.082031 4.359375 -2.125 C 4.523438 -2.164062 4.726562 -2.179688 4.96875 -2.171875 C 5.207031 -2.171875 5.476562 -2.082031 5.78125 -1.90625 C 6.082031 -1.738281 6.390625 -1.46875 6.703125 -1.09375 C 7.023438 -0.71875 7.195312 -0.316406 7.21875 0.109375 C 7.25 0.535156 7.09375 0.890625 6.75 1.171875 C 6.414062 1.453125 5.957031 1.609375 5.375 1.640625 C 4.789062 1.671875 4.171875 1.625 3.515625 1.5 C 2.867188 1.382812 2.519531 1.347656 2.46875 1.390625 C 2.414062 1.441406 2.601562 1.722656 3.03125 2.234375 C 3.457031 2.742188 3.84375 3.101562 4.1875 3.3125 C 4.3125 3.40625 4.503906 3.441406 4.765625 3.421875 C 5.035156 3.410156 5.1875 3.421875 5.21875 3.453125 C 5.28125 3.535156 5.269531 3.609375 5.1875 3.671875 C 5.164062 3.691406 4.914062 3.753906 4.4375 3.859375 C 3.957031 3.960938 3.695312 4.019531 3.65625 4.03125 C 3.445312 4.019531 3.316406 4 3.265625 3.96875 Z M 1.703125 2.046875 "/></g></g></g><g fill="#000000" fill-opacity="1"><g transform="translate(215.15699, 93.969855)"><g><path d="M -1.859375 1.453125 C -1.835938 1.441406 -1.5625 1.378906 -1.03125 1.265625 C 6.851562 -0.273438 10.835938 -1.054688 10.921875 -1.078125 C 11.015625 -1.097656 11.085938 -1.09375 11.140625 -1.0625 C 11.191406 -1.039062 11.253906 -0.960938 11.328125 -0.828125 C 11.410156 -0.691406 11.40625 -0.597656 11.3125 -0.546875 C 11.25 -0.503906 11.046875 -0.453125 10.703125 -0.390625 L -1.21875 2.015625 C -1.4375 2.054688 -1.570312 2.0625 -1.625 2.03125 C -1.6875 2.007812 -1.765625 1.921875 -1.859375 1.765625 C -1.953125 1.617188 -1.953125 1.515625 -1.859375 1.453125 Z M -1.859375 1.453125 "/></g></g></g><g fill="#000000" fill-opacity="1"><g transform="translate(221.021148, 104.392122)"><g><path d="M 1.203125 3.453125 C 0.828125 2.546875 0.816406 1.71875 1.171875 0.96875 C 1.535156 0.226562 2.125 -0.304688 2.9375 -0.640625 C 3.757812 -0.984375 4.53125 -0.96875 5.25 -0.59375 C 5.976562 -0.21875 6.503906 0.351562 6.828125 1.125 C 7.148438 1.90625 7.179688 2.675781 6.921875 3.4375 C 6.671875 4.207031 6.085938 4.78125 5.171875 5.15625 C 4.410156 5.46875 3.648438 5.488281 2.890625 5.21875 C 2.140625 4.957031 1.578125 4.367188 1.203125 3.453125 Z M 6.140625 1.328125 C 5.898438 0.742188 5.507812 0.328125 4.96875 0.078125 C 4.4375 -0.171875 3.828125 -0.15625 3.140625 0.125 C 2.453125 0.414062 2.007812 0.859375 1.8125 1.453125 C 1.625 2.054688 1.648438 2.648438 1.890625 3.234375 C 2.128906 3.816406 2.539062 4.234375 3.125 4.484375 C 3.71875 4.734375 4.335938 4.722656 4.984375 4.453125 C 5.628906 4.191406 6.039062 3.753906 6.21875 3.140625 C 6.40625 2.523438 6.378906 1.921875 6.140625 1.328125 Z M 6.140625 1.328125 "/></g></g></g><g fill="#000000" fill-opacity="1"><g transform="translate(225.644345, 117.085437)"><g><path d="M -1.703125 0.953125 C -1.410156 0.878906 -1.242188 0.925781 -1.203125 1.09375 C -1.191406 1.132812 -1.234375 1.210938 -1.328125 1.328125 C -1.421875 1.453125 -1.5 1.628906 -1.5625 1.859375 C -1.625 2.097656 -1.617188 2.363281 -1.546875 2.65625 C -1.421875 3.175781 -1.101562 3.566406 -0.59375 3.828125 C -0.0820312 4.085938 0.398438 4.160156 0.859375 4.046875 C 1.316406 3.941406 1.644531 3.671875 1.84375 3.234375 C 2.039062 2.804688 2.066406 2.296875 1.921875 1.703125 C 1.878906 1.503906 1.835938 1.351562 1.796875 1.25 C 1.753906 1.15625 1.734375 1.101562 1.734375 1.09375 C 1.703125 0.988281 1.726562 0.925781 1.8125 0.90625 C 1.882812 0.882812 1.945312 0.894531 2 0.9375 C 2.050781 0.988281 2.09375 1.039062 2.125 1.09375 C 2.238281 1.238281 2.441406 1.4375 2.734375 1.6875 C 3.441406 2.3125 4.113281 2.550781 4.75 2.40625 C 5.03125 2.332031 5.25 2.144531 5.40625 1.84375 C 5.570312 1.550781 5.617188 1.25 5.546875 0.9375 C 5.472656 0.632812 5.34375 0.410156 5.15625 0.265625 C 4.96875 0.117188 4.867188 0.0195312 4.859375 -0.03125 C 4.835938 -0.132812 4.875 -0.195312 4.96875 -0.21875 C 5.101562 -0.25 5.332031 -0.117188 5.65625 0.171875 C 5.976562 0.472656 6.191406 0.835938 6.296875 1.265625 C 6.398438 1.691406 6.394531 2.097656 6.28125 2.484375 C 6.175781 2.878906 5.898438 3.132812 5.453125 3.25 C 5.203125 3.300781 4.925781 3.28125 4.625 3.1875 C 4.320312 3.101562 4.0625 2.988281 3.84375 2.84375 C 3.625 2.695312 3.429688 2.5625 3.265625 2.4375 C 3.097656 2.320312 2.992188 2.269531 2.953125 2.28125 C 2.953125 2.28125 2.953125 2.332031 2.953125 2.4375 C 2.984375 2.789062 2.96875 3.09375 2.90625 3.34375 C 2.738281 4.0625 2.3125 4.5 1.625 4.65625 C 0.9375 4.820312 0.15625 4.675781 -0.71875 4.21875 C -1.601562 3.769531 -2.140625 3.148438 -2.328125 2.359375 C -2.515625 1.578125 -2.445312 1.144531 -2.125 1.0625 L -1.84375 1 Z M -1.703125 0.953125 "/></g></g></g><g fill="#000000" fill-opacity="1"><g transform="translate(227.905497, 128.726943)"><g><path d="M 0.390625 1.140625 C 0.578125 0.835938 0.722656 0.679688 0.828125 0.671875 C 0.941406 0.660156 1.132812 0.785156 1.40625 1.046875 C 1.445312 1.066406 1.515625 1.109375 1.609375 1.171875 C 1.703125 1.242188 1.773438 1.304688 1.828125 1.359375 C 1.890625 1.421875 1.925781 1.488281 1.9375 1.5625 C 1.945312 1.632812 1.789062 1.835938 1.46875 2.171875 C 1.445312 2.191406 1.40625 2.25 1.34375 2.34375 C 1.195312 2.53125 1.09375 2.625 1.03125 2.625 C 0.976562 2.632812 0.921875 2.617188 0.859375 2.578125 C 0.804688 2.535156 0.742188 2.472656 0.671875 2.390625 C 0.671875 2.390625 0.609375 2.320312 0.484375 2.1875 C 0.441406 2.164062 0.367188 2.128906 0.265625 2.078125 C 0.0664062 1.941406 -0.0351562 1.828125 -0.046875 1.734375 C -0.0546875 1.640625 0.0078125 1.519531 0.15625 1.375 C 0.3125 1.238281 0.390625 1.160156 0.390625 1.140625 Z M 0.390625 1.140625 "/></g></g></g><g fill="#000000" fill-opacity="1"><g transform="translate(228.542164, 138.465435)"><g><path d="M -0.125 2.65625 L -0.0625 0.765625 C -0.0507812 0.523438 0 0.40625 0.09375 0.40625 C 0.144531 0.40625 0.1875 0.429688 0.21875 0.484375 C 0.257812 0.535156 0.304688 0.640625 0.359375 0.796875 C 0.421875 0.953125 0.492188 1.101562 0.578125 1.25 C 1.148438 2.300781 1.726562 3.078125 2.3125 3.578125 C 2.894531 4.078125 3.40625 4.332031 3.84375 4.34375 C 4.28125 4.363281 4.625 4.222656 4.875 3.921875 C 5.132812 3.628906 5.269531 3.332031 5.28125 3.03125 C 5.300781 2.488281 5.097656 2.207031 4.671875 2.1875 C 4.578125 2.1875 4.429688 2.21875 4.234375 2.28125 C 4.035156 2.351562 3.910156 2.390625 3.859375 2.390625 C 3.765625 2.390625 3.722656 2.300781 3.734375 2.125 C 3.742188 1.945312 3.800781 1.757812 3.90625 1.5625 C 4.019531 1.363281 4.132812 1.265625 4.25 1.265625 C 4.363281 1.265625 4.5 1.304688 4.65625 1.390625 C 4.8125 1.472656 4.972656 1.59375 5.140625 1.75 C 5.304688 1.914062 5.441406 2.164062 5.546875 2.5 C 5.660156 2.832031 5.707031 3.242188 5.6875 3.734375 C 5.664062 4.222656 5.519531 4.632812 5.25 4.96875 C 4.988281 5.300781 4.640625 5.457031 4.203125 5.4375 C 3.765625 5.425781 3.316406 5.226562 2.859375 4.84375 C 2.398438 4.46875 1.972656 4.015625 1.578125 3.484375 C 1.179688 2.960938 0.945312 2.695312 0.875 2.6875 C 0.800781 2.6875 0.75 3.019531 0.71875 3.6875 C 0.695312 4.351562 0.742188 4.882812 0.859375 5.28125 C 0.890625 5.425781 1.003906 5.582031 1.203125 5.75 C 1.410156 5.914062 1.515625 6.019531 1.515625 6.0625 C 1.503906 6.164062 1.445312 6.21875 1.34375 6.21875 C 1.3125 6.21875 1.082031 6.09375 0.65625 5.84375 C 0.238281 5.601562 0.0078125 5.46875 -0.03125 5.4375 C -0.175781 5.289062 -0.253906 5.191406 -0.265625 5.140625 Z M -0.125 2.65625 "/></g></g></g><g fill="#000000" fill-opacity="1"><g transform="translate(227.568237, 151.086844)"><g><path d="M -0.9375 3.53125 C -0.738281 2.5625 -0.285156 1.867188 0.421875 1.453125 C 1.140625 1.046875 1.929688 0.929688 2.796875 1.109375 C 3.660156 1.285156 4.285156 1.726562 4.671875 2.4375 C 5.066406 3.15625 5.179688 3.925781 5.015625 4.75 C 4.847656 5.582031 4.445312 6.238281 3.8125 6.71875 C 3.175781 7.207031 2.375 7.351562 1.40625 7.15625 C 0.601562 6.988281 -0.0351562 6.582031 -0.515625 5.9375 C -0.992188 5.300781 -1.132812 4.5 -0.9375 3.53125 Z M 4.34375 4.53125 C 4.46875 3.914062 4.378906 3.351562 4.078125 2.84375 C 3.773438 2.332031 3.257812 2 2.53125 1.84375 C 1.800781 1.695312 1.1875 1.820312 0.6875 2.21875 C 0.195312 2.613281 -0.109375 3.117188 -0.234375 3.734375 C -0.359375 4.359375 -0.25 4.9375 0.09375 5.46875 C 0.445312 6 0.960938 6.332031 1.640625 6.46875 C 2.328125 6.613281 2.914062 6.484375 3.40625 6.078125 C 3.90625 5.671875 4.21875 5.15625 4.34375 4.53125 Z M 4.34375 4.53125 "/></g></g></g><g fill="#000000" fill-opacity="1"><g transform="translate(224.330476, 164.189243)"><g><path d="M -0.96875 2.484375 L -0.296875 0.703125 C -0.210938 0.472656 -0.125 0.375 -0.03125 0.40625 C 0.0078125 0.425781 0.0390625 0.46875 0.0625 0.53125 C 0.0820312 0.59375 0.09375 0.707031 0.09375 0.875 C 0.101562 1.039062 0.117188 1.203125 0.140625 1.359375 C 0.347656 2.535156 0.648438 3.453125 1.046875 4.109375 C 1.441406 4.773438 1.84375 5.1875 2.25 5.34375 C 2.65625 5.5 3.023438 5.472656 3.359375 5.265625 C 3.703125 5.066406 3.925781 4.828125 4.03125 4.546875 C 4.21875 4.046875 4.113281 3.71875 3.71875 3.5625 C 3.632812 3.53125 3.488281 3.515625 3.28125 3.515625 C 3.070312 3.523438 2.941406 3.519531 2.890625 3.5 C 2.804688 3.46875 2.796875 3.367188 2.859375 3.203125 C 2.921875 3.035156 3.035156 2.875 3.203125 2.71875 C 3.378906 2.5625 3.519531 2.503906 3.625 2.546875 C 3.726562 2.585938 3.835938 2.671875 3.953125 2.796875 C 4.078125 2.921875 4.191406 3.085938 4.296875 3.296875 C 4.410156 3.515625 4.46875 3.796875 4.46875 4.140625 C 4.46875 4.484375 4.378906 4.882812 4.203125 5.34375 C 4.023438 5.800781 3.753906 6.144531 3.390625 6.375 C 3.035156 6.601562 2.648438 6.640625 2.234375 6.484375 C 1.828125 6.335938 1.46875 6.007812 1.15625 5.5 C 0.84375 4.988281 0.582031 4.421875 0.375 3.796875 C 0.164062 3.179688 0.03125 2.859375 -0.03125 2.828125 C -0.101562 2.804688 -0.253906 3.101562 -0.484375 3.71875 C -0.722656 4.34375 -0.847656 4.859375 -0.859375 5.265625 C -0.878906 5.421875 -0.816406 5.609375 -0.671875 5.828125 C -0.535156 6.054688 -0.476562 6.191406 -0.5 6.234375 C -0.53125 6.328125 -0.597656 6.351562 -0.703125 6.3125 C -0.734375 6.300781 -0.910156 6.113281 -1.234375 5.75 C -1.554688 5.382812 -1.734375 5.179688 -1.765625 5.140625 C -1.859375 4.953125 -1.898438 4.832031 -1.890625 4.78125 Z M -0.96875 2.484375 "/></g></g></g><g fill="#000000" fill-opacity="1"><g transform="translate(219.318557, 175.859185)"><g><path d="M 4.109375 4.28125 L 3.59375 5.15625 C 3.53125 5.269531 3.46875 5.375 3.40625 5.46875 C 3.351562 5.570312 3.3125 5.65625 3.28125 5.71875 C 3.25 5.789062 3.222656 5.84375 3.203125 5.875 C 3.179688 5.914062 3.164062 5.953125 3.15625 5.984375 C 3.144531 6.015625 3.140625 6.039062 3.140625 6.0625 C 3.148438 6.09375 3.15625 6.113281 3.15625 6.125 C 3.15625 6.132812 3.160156 6.148438 3.171875 6.171875 C 3.179688 6.191406 3.191406 6.222656 3.203125 6.265625 C 3.222656 6.304688 3.242188 6.359375 3.265625 6.421875 C 3.285156 6.484375 3.304688 6.523438 3.328125 6.546875 C 3.359375 6.648438 3.363281 6.71875 3.34375 6.75 C 3.289062 6.851562 3.21875 6.878906 3.125 6.828125 C 3.09375 6.804688 3.035156 6.742188 2.953125 6.640625 C 2.878906 6.535156 2.789062 6.414062 2.6875 6.28125 C 2.59375 6.15625 2.519531 6.0625 2.46875 6 C 2.414062 5.9375 2.367188 5.878906 2.328125 5.828125 C 2.285156 5.785156 2.269531 5.75 2.28125 5.71875 C 2.269531 5.664062 2.285156 5.597656 2.328125 5.515625 C 3.035156 4.242188 3.359375 3.570312 3.296875 3.5 C 3.078125 3.226562 2.929688 3.066406 2.859375 3.015625 C 2.785156 2.972656 2.660156 3.03125 2.484375 3.1875 C 1.898438 3.789062 1.351562 4.15625 0.84375 4.28125 C 0.664062 4.320312 0.410156 4.328125 0.078125 4.296875 C -0.242188 4.265625 -0.566406 4.15625 -0.890625 3.96875 C -1.578125 3.59375 -2.125 3.039062 -2.53125 2.3125 C -3.207031 1.15625 -3.234375 0.0195312 -2.609375 -1.09375 C -2.492188 -1.3125 -2.300781 -1.5 -2.03125 -1.65625 C -1.96875 -1.6875 -1.835938 -1.664062 -1.640625 -1.59375 C -1.441406 -1.519531 -1.300781 -1.460938 -1.21875 -1.421875 C -0.988281 -1.296875 -0.898438 -1.1875 -0.953125 -1.09375 C -0.984375 -1.03125 -1.085938 -0.972656 -1.265625 -0.921875 C -1.847656 -0.804688 -2.257812 -0.53125 -2.5 -0.09375 C -2.75 0.34375 -2.707031 0.863281 -2.375 1.46875 C -2.039062 2.082031 -1.566406 2.566406 -0.953125 2.921875 C -0.578125 3.128906 -0.25 3.242188 0.03125 3.265625 C 0.3125 3.296875 0.609375 3.238281 0.921875 3.09375 C 1.234375 2.945312 1.472656 2.796875 1.640625 2.640625 C 1.804688 2.492188 1.929688 2.367188 2.015625 2.265625 C 2.179688 2.015625 2.335938 1.929688 2.484375 2.015625 C 2.554688 2.054688 2.617188 2.113281 2.671875 2.1875 C 2.960938 2.59375 3.410156 3.109375 4.015625 3.734375 C 4.179688 3.910156 4.210938 4.09375 4.109375 4.28125 Z M 4.109375 4.28125 "/></g></g></g><g fill="#000000" fill-opacity="1"><g transform="translate(58.549451, 156.323667)"><g><path d="M 65 -27.21875 C 65 -22.550781 64.046875 -18.3125 62.140625 -14.5 C 60.234375 -10.6875 57.585938 -7.484375 54.203125 -4.890625 C 50.828125 -2.304688 46.914062 -0.519531 42.46875 0.46875 L 42.8125 1.015625 C 43.894531 2.703125 45.1875 4.054688 46.6875 5.078125 C 48.1875 6.097656 50.1875 6.609375 52.6875 6.609375 L 52.6875 7.625 C 49.914062 7.625 47.375 7.296875 45.0625 6.640625 C 42.75 5.984375 40.910156 4.609375 39.546875 2.515625 C 39.359375 2.285156 39.195312 2.046875 39.0625 1.796875 C 38.925781 1.546875 38.789062 1.332031 38.65625 1.15625 C 37.300781 1.289062 35.914062 1.359375 34.5 1.359375 C 30.144531 1.359375 26.117188 0.65625 22.421875 -0.75 C 18.722656 -2.15625 15.5 -4.128906 12.75 -6.671875 C 10.007812 -9.210938 7.878906 -12.226562 6.359375 -15.71875 C 4.835938 -19.21875 4.078125 -23.050781 4.078125 -27.21875 C 4.078125 -31.394531 4.835938 -35.226562 6.359375 -38.71875 C 7.878906 -42.21875 10.007812 -45.238281 12.75 -47.78125 C 15.5 -50.320312 18.722656 -52.296875 22.421875 -53.703125 C 26.117188 -55.109375 30.144531 -55.8125 34.5 -55.8125 C 38.863281 -55.8125 42.894531 -55.109375 46.59375 -53.703125 C 50.289062 -52.296875 53.519531 -50.320312 56.28125 -47.78125 C 59.050781 -45.238281 61.195312 -42.21875 62.71875 -38.71875 C 64.238281 -35.226562 65 -31.394531 65 -27.21875 Z M 41.515625 -0.890625 C 44.921875 -2.066406 47.828125 -3.96875 50.234375 -6.59375 C 52.640625 -9.226562 54.476562 -12.335938 55.75 -15.921875 C 57.019531 -19.503906 57.65625 -23.269531 57.65625 -27.21875 C 57.65625 -30.8125 57.128906 -34.25 56.078125 -37.53125 C 55.035156 -40.820312 53.503906 -43.757812 51.484375 -46.34375 C 49.460938 -48.9375 47.035156 -50.976562 44.203125 -52.46875 C 41.367188 -53.96875 38.132812 -54.71875 34.5 -54.71875 C 30.914062 -54.71875 27.695312 -53.96875 24.84375 -52.46875 C 21.988281 -50.976562 19.5625 -48.9375 17.5625 -46.34375 C 15.5625 -43.757812 14.039062 -40.820312 13 -37.53125 C 11.957031 -34.25 11.4375 -30.8125 11.4375 -27.21875 C 11.4375 -23.363281 12.035156 -19.675781 13.234375 -16.15625 C 14.441406 -12.644531 16.203125 -9.570312 18.515625 -6.9375 C 20.828125 -4.3125 23.59375 -2.363281 26.8125 -1.09375 C 27.582031 -2.269531 28.546875 -3.300781 29.703125 -4.1875 C 30.859375 -5.070312 32.253906 -5.515625 33.890625 -5.515625 C 35.710938 -5.515625 37.210938 -5.070312 38.390625 -4.1875 C 39.566406 -3.300781 40.609375 -2.203125 41.515625 -0.890625 Z M 34.5 0.265625 C 35.132812 0.265625 35.75 0.242188 36.34375 0.203125 C 36.9375 0.160156 37.523438 0.09375 38.109375 0 C 37.523438 -1.175781 36.890625 -2.207031 36.203125 -3.09375 C 35.523438 -3.976562 34.550781 -4.421875 33.28125 -4.421875 C 32.144531 -4.421875 31.085938 -4.046875 30.109375 -3.296875 C 29.140625 -2.546875 28.382812 -1.695312 27.84375 -0.75 C 29.96875 -0.0703125 32.1875 0.265625 34.5 0.265625 Z M 34.5 0.265625 "/></g></g></g><g transform="matrix(1, 0, 0, 1, 159, 146)"><g clip-path="url(#12aa35a001)"><g fill="#000000" fill-opacity="1"><g transform="translate(1.200303, 58.899588)"><g><path d="M 36.390625 -12.96875 C 37.566406 -9.914062 38.734375 -7.523438 39.890625 -5.796875 C 41.054688 -4.066406 42.390625 -2.835938 43.890625 -2.109375 C 45.390625 -1.390625 47.1875 -1.03125 49.28125 -1.03125 L 49.28125 0 C 45.550781 0 42.421875 -0.375 39.890625 -1.125 C 37.367188 -1.875 35.300781 -3.160156 33.6875 -4.984375 C 32.070312 -6.804688 30.695312 -9.3125 29.5625 -12.5 C 28.28125 -16.09375 26.921875 -18.796875 25.484375 -20.609375 C 24.054688 -22.429688 22.453125 -23.660156 20.671875 -24.296875 C 18.898438 -24.941406 16.832031 -25.265625 14.46875 -25.265625 L 12.015625 -25.265625 L 12.015625 -13.453125 C 12.015625 -11.804688 12.023438 -10.320312 12.046875 -9 C 12.066406 -7.6875 12.125 -6.332031 12.21875 -4.9375 C 12.3125 -3.550781 12.425781 -1.90625 12.5625 0 L 4.78125 0 C 4.914062 -1.90625 5.023438 -3.550781 5.109375 -4.9375 C 5.203125 -6.332031 5.257812 -7.6875 5.28125 -9 C 5.3125 -10.320312 5.328125 -11.804688 5.328125 -13.453125 L 5.328125 -41.171875 C 5.328125 -42.847656 5.3125 -44.332031 5.28125 -45.625 C 5.257812 -46.925781 5.203125 -48.269531 5.109375 -49.65625 C 5.023438 -51.050781 4.914062 -52.703125 4.78125 -54.609375 L 17.40625 -54.609375 C 20.457031 -54.609375 23.347656 -54.390625 26.078125 -53.953125 C 28.804688 -53.523438 31.226562 -52.773438 33.34375 -51.703125 C 35.457031 -50.640625 37.117188 -49.148438 38.328125 -47.234375 C 39.535156 -45.328125 40.140625 -42.894531 40.140625 -39.9375 C 40.140625 -36.476562 39.34375 -33.734375 37.75 -31.703125 C 36.15625 -29.679688 34.003906 -28.191406 31.296875 -27.234375 C 28.585938 -26.273438 25.550781 -25.660156 22.1875 -25.390625 C 25.144531 -24.847656 27.835938 -23.664062 30.265625 -21.84375 C 32.703125 -20.019531 34.742188 -17.0625 36.390625 -12.96875 Z M 12.015625 -26.34375 L 17.34375 -26.34375 C 19.34375 -26.34375 21.285156 -26.546875 23.171875 -26.953125 C 25.066406 -27.367188 26.765625 -28.078125 28.265625 -29.078125 C 29.765625 -30.078125 30.957031 -31.453125 31.84375 -33.203125 C 32.726562 -34.960938 33.171875 -37.207031 33.171875 -39.9375 C 33.171875 -42.664062 32.726562 -44.90625 31.84375 -46.65625 C 30.957031 -48.40625 29.765625 -49.78125 28.265625 -50.78125 C 26.765625 -51.789062 25.066406 -52.5 23.171875 -52.90625 C 21.285156 -53.3125 19.34375 -53.515625 17.34375 -53.515625 L 12.015625 -53.515625 Z M 12.015625 -26.34375 "/></g></g></g></g></g><g fill="#000000" fill-opacity="1"><g transform="translate(134.448725, 164.21887)"><g><path d="M 17.78125 -8.28125 C 18.882812 -10.03125 19.539062 -11.140625 19.75 -11.609375 C 19.957031 -12.085938 20.125 -12.066406 20.25 -11.546875 C 20.375 -11.035156 20.019531 -9.867188 19.1875 -8.046875 C 18.351562 -6.234375 17.316406 -4.835938 16.078125 -3.859375 C 14.847656 -2.878906 13.695312 -2.515625 12.625 -2.765625 C 11.5625 -3.023438 10.800781 -3.769531 10.34375 -5 C 9.882812 -6.226562 9.75 -7.773438 9.9375 -9.640625 C 9.9375 -9.660156 9.953125 -9.738281 9.984375 -9.875 C 10.003906 -10.1875 10.054688 -10.648438 10.140625 -11.265625 C 10.222656 -11.878906 10.28125 -12.515625 10.3125 -13.171875 C 10.34375 -13.835938 10.316406 -14.382812 10.234375 -14.8125 C 10.160156 -15.25 9.96875 -15.398438 9.65625 -15.265625 C 8.894531 -14.847656 8.148438 -14.035156 7.421875 -12.828125 C 6.703125 -11.617188 6.046875 -10.347656 5.453125 -9.015625 C 4.867188 -7.691406 4.457031 -6.625 4.21875 -5.8125 C 4.113281 -5.550781 4.019531 -5.273438 3.9375 -4.984375 C 3.8125 -4.617188 3.664062 -4.25 3.5 -3.875 C 3.082031 -2.800781 2.359375 -2.382812 1.328125 -2.625 C 0.753906 -2.75 0.421875 -3.097656 0.328125 -3.671875 C 0.296875 -4.117188 0.28125 -4.546875 0.28125 -4.953125 C 0.28125 -5.203125 0.265625 -5.4375 0.234375 -5.65625 C 0.179688 -8.84375 0.101562 -12.046875 0 -15.265625 C 0.03125 -15.640625 0.195312 -15.898438 0.5 -16.046875 C 0.800781 -16.191406 1.15625 -16.265625 1.5625 -16.265625 C 1.882812 -16.265625 2.179688 -16.175781 2.453125 -16 C 2.734375 -15.832031 2.910156 -15.472656 2.984375 -14.921875 C 3.015625 -14.734375 3.03125 -14.546875 3.03125 -14.359375 C 3.0625 -14.265625 3.078125 -14.175781 3.078125 -14.09375 C 3.128906 -13.644531 3.15625 -13.265625 3.15625 -12.953125 C 3.15625 -12.472656 3.1875 -12.144531 3.25 -11.96875 C 3.320312 -11.800781 3.460938 -11.8125 3.671875 -12 C 3.878906 -12.1875 4.21875 -12.628906 4.6875 -13.328125 C 5.507812 -14.597656 6.519531 -15.671875 7.71875 -16.546875 C 8.820312 -17.328125 10.035156 -17.65625 11.359375 -17.53125 C 12.492188 -17.414062 13.253906 -16.820312 13.640625 -15.75 C 13.796875 -15.195312 13.875 -14.644531 13.875 -14.09375 C 13.875 -13.539062 13.835938 -12.988281 13.765625 -12.4375 C 13.734375 -11.863281 13.691406 -11.273438 13.640625 -10.671875 C 13.597656 -10.484375 13.5625 -10.296875 13.53125 -10.109375 C 13.34375 -8.054688 13.40625 -6.679688 13.71875 -5.984375 C 14.03125 -5.296875 14.507812 -5.066406 15.15625 -5.296875 C 15.800781 -5.535156 16.675781 -6.53125 17.78125 -8.28125 Z M 17.78125 -8.28125 "/></g></g></g></svg>